<?xml version="1.0" encoding="UTF-8"?>
<svg id="Camada_2" data-name="Camada 2" xmlns="http://www.w3.org/2000/svg" viewBox="0 0 331.8 96.85">
  <defs>
    <style>
      .cls-1, .cls-2 {
        fill: #fff;
      }

      .cls-2 {
        fill-rule: evenodd;
      }

      .cls-3 {
        fill: #e30613;
      }
    </style>
  </defs>
  <g id="Camada_1-2" data-name="Camada 1">
    <g>
      <path class="cls-3" d="M36.39,92.14v-35.26H1.13c1.87,8.33,6.03,16.26,12.52,22.74,6.49,6.49,14.41,10.65,22.74,12.52"/>
      <path class="cls-1" d="M73.61,73.62c-6.42,6.42-14.56,10.05-22.93,10.94l33.89-33.89c-.88,8.38-4.53,16.52-10.95,22.95M8.71,42.59c.89-8.38,4.52-16.51,10.94-22.93,6.42-6.42,14.57-10.07,22.95-10.95L8.71,42.59h0ZM81.07,15.19l-6,6-11.95,11.95,6,6,10.93-10.93c2.49,4.51,4,9.4,4.53,14.39l-6.46-6.46-6,6,4.5,4.5-27.5,27.5v-29.98h-29.98l27.5-27.5,4.5,4.5,6-6-6.46-6.46c4.99.53,9.89,2.04,14.39,4.53l-10.93,10.93,6,6,14.99-14.99,2.96-2.96C59.77-4.54,31.36-4.05,13.65,13.66,3.01,24.29-1.4,38.79.39,52.63h40.25v40.25c13.85,1.79,28.34-2.63,38.98-13.26,17.71-17.71,18.2-46.12,1.46-64.42"/>
      <path class="cls-2" d="M250.94,86.14c.51.57.9,1.23,1.17,1.99.27.76.4,1.57.4,2.45s-.13,1.69-.4,2.45c-.27.76-.65,1.42-1.17,1.99-.51.57-1.14,1.01-1.89,1.34-.74.33-1.59.49-2.55.49s-1.81-.16-2.55-.49c-.74-.33-1.37-.77-1.88-1.34-.51-.57-.9-1.23-1.17-1.99-.27-.76-.4-1.57-.4-2.45s.14-1.69.4-2.45c.27-.76.66-1.42,1.17-1.99.51-.57,1.14-1.02,1.88-1.34.75-.33,1.6-.49,2.55-.49s1.81.16,2.55.49c.75.33,1.37.77,1.89,1.34h0ZM249.18,91.96c.1-.47.15-.92.15-1.37s-.05-.91-.15-1.37c-.1-.47-.27-.89-.49-1.27-.23-.38-.52-.7-.88-.94-.36-.25-.79-.37-1.31-.37s-.95.12-1.31.37c-.36.25-.65.56-.88.94-.23.38-.39.81-.5,1.27-.1.47-.15.93-.15,1.37s.05.91.15,1.37c.1.47.27.89.5,1.27.23.38.52.7.88.94.36.25.8.37,1.31.37s.95-.12,1.31-.37c.36-.25.65-.56.88-.94.23-.38.39-.81.49-1.27h0ZM233.41,91.35c.34.45.51,1.03.51,1.71s-.13,1.23-.4,1.71c-.27.48-.64.87-1.13,1.18-.48.31-1.06.54-1.72.68-.67.15-1.39.22-2.18.22-.74,0-1.42-.04-2.03-.13-.61-.08-1.15-.18-1.6-.29-.45-.11-.8-.2-1.05-.29-.25-.09-.38-.13-.39-.13,0-.16,0-.31,0-.45,0-.14,0-.3,0-.47v-.55c0-.44,0-.93.02-1.48.22.1.5.24.85.4.35.17.73.33,1.16.49.43.16.88.3,1.35.42.47.12.93.19,1.39.2.17,0,.4-.01.69-.03.29-.02.57-.06.85-.14.28-.08.52-.2.72-.37.2-.17.3-.4.3-.69s-.17-.53-.5-.73c-.33-.19-.76-.37-1.26-.54-.51-.17-1.05-.35-1.64-.56-.59-.2-1.13-.46-1.64-.77-.51-.31-.93-.7-1.26-1.16-.33-.47-.5-1.05-.5-1.76,0-.64.16-1.18.49-1.63.32-.44.73-.81,1.23-1.09.49-.28,1.04-.49,1.63-.61.59-.13,1.16-.19,1.69-.19.93,0,1.78.06,2.54.19.76.13,1.37.25,1.83.38v.73c0,.21,0,.43,0,.67,0,.24-.01.46-.02.67,0,.2-.01.44-.01.71-.19-.13-.45-.27-.78-.4-.33-.13-.67-.24-1.04-.34-.37-.1-.75-.18-1.14-.24-.39-.06-.75-.09-1.08-.09-.18,0-.4,0-.66,0-.26,0-.5.04-.73.1-.23.06-.43.16-.6.3-.16.14-.25.34-.25.6,0,.32.17.57.51.77.34.2.77.38,1.27.56.5.17,1.05.36,1.65.55.59.2,1.14.44,1.65.74.51.3.93.67,1.27,1.13h0ZM278.23,84.57h3.17v12.03h-3.17v-12.03h0ZM216.6,91.35c.34.45.51,1.03.51,1.71s-.14,1.23-.4,1.71c-.27.48-.64.87-1.12,1.18-.48.31-1.06.54-1.72.68-.67.15-1.39.22-2.18.22-.74,0-1.42-.04-2.03-.13-.61-.08-1.15-.18-1.6-.29-.45-.11-.8-.2-1.05-.29-.25-.09-.38-.13-.39-.13,0-.16,0-.31,0-.45,0-.14,0-.3,0-.47v-.55c0-.44,0-.93.02-1.48.22.1.5.24.85.4.35.17.73.33,1.16.49.43.16.88.3,1.35.42.47.12.94.19,1.39.2.17,0,.4-.01.69-.03s.58-.06.85-.14c.28-.08.52-.2.72-.37.2-.17.3-.4.3-.69s-.17-.53-.5-.73c-.34-.19-.76-.37-1.26-.54-.51-.17-1.05-.35-1.64-.56-.58-.2-1.13-.46-1.64-.77-.51-.31-.93-.7-1.26-1.16-.34-.47-.5-1.05-.5-1.76,0-.64.16-1.18.49-1.63.32-.44.73-.81,1.23-1.09.49-.28,1.04-.49,1.63-.61.59-.13,1.15-.19,1.69-.19.93,0,1.78.06,2.54.19.76.13,1.37.25,1.83.38v.73c0,.21,0,.43-.01.67,0,.24-.01.46-.02.67,0,.2,0,.44,0,.71-.19-.13-.45-.27-.78-.4-.32-.13-.67-.24-1.04-.34-.37-.1-.75-.18-1.14-.24-.39-.06-.74-.09-1.07-.09-.18,0-.4,0-.66,0-.26,0-.5.04-.73.1-.23.06-.43.16-.6.3-.17.14-.25.34-.25.6,0,.32.17.57.51.77.34.2.77.38,1.27.56.51.17,1.06.36,1.65.55.59.2,1.14.44,1.65.74.51.3.93.67,1.27,1.13h0ZM295.86,84.57l4.56,12.03h-3.31l-.75-2.24h-4.25l-.77,2.24h-3.26l4.55-12.03h3.23ZM292.84,92.11h2.76l-1.35-4.21h-.04l-1.38,4.21h0ZM268.82,93.61c.39.55.75,1.06,1.08,1.51.39.53.77,1.03,1.16,1.5h-3.65c-.32-.41-.64-.86-.96-1.33-.27-.4-.57-.86-.88-1.38-.31-.52-.6-1.06-.86-1.64h-1.69v4.33h-3.17v-11.66c.49-.13.96-.24,1.4-.32.44-.08.97-.15,1.6-.22.62-.07,1.3-.1,2.06-.1.81,0,1.53.09,2.17.28.64.19,1.19.45,1.65.8.45.35.8.77,1.04,1.26.24.49.36,1.04.36,1.65,0,.53-.06.99-.18,1.39-.12.4-.28.75-.5,1.04-.21.3-.46.54-.76.74-.3.2-.61.35-.96.46.33.56.69,1.12,1.08,1.68h0ZM266.73,89.39c.23-.23.34-.57.34-1.03,0-.62-.21-1.09-.63-1.4-.42-.32-1.01-.48-1.76-.48-.23,0-.44.01-.65.04-.2.03-.38.05-.53.08-.18.03-.34.07-.48.1v3.29h1.51c.48,0,.91-.04,1.29-.13.38-.08.68-.24.91-.46h0ZM165.42,91.35c.34.45.51,1.03.51,1.71s-.13,1.23-.4,1.71c-.27.48-.64.87-1.13,1.18-.48.31-1.06.54-1.72.68-.66.15-1.39.22-2.18.22-.74,0-1.42-.04-2.03-.13-.61-.08-1.15-.18-1.6-.29-.45-.11-.8-.2-1.05-.29-.25-.09-.38-.13-.39-.13,0-.16,0-.31,0-.45,0-.14,0-.3,0-.47v-.55c0-.44,0-.93.02-1.48.22.1.5.24.85.4.35.17.73.33,1.16.49.43.16.88.3,1.35.42.47.12.94.19,1.39.2.17,0,.4-.01.69-.03s.57-.06.85-.14c.28-.08.52-.2.72-.37.2-.17.3-.4.3-.69s-.17-.53-.5-.73c-.34-.19-.76-.37-1.26-.54-.51-.17-1.05-.35-1.64-.56s-1.13-.46-1.64-.77c-.51-.31-.93-.7-1.26-1.16-.34-.47-.5-1.05-.5-1.76,0-.64.16-1.18.49-1.63.32-.44.73-.81,1.23-1.09.5-.28,1.04-.49,1.63-.61.59-.13,1.15-.19,1.69-.19.93,0,1.78.06,2.54.19.76.13,1.37.25,1.83.38v.73c0,.21,0,.43,0,.67,0,.24-.01.46-.02.67,0,.2,0,.44,0,.71-.19-.13-.45-.27-.78-.4-.32-.13-.67-.24-1.04-.34-.37-.1-.75-.18-1.13-.24-.39-.06-.74-.09-1.08-.09-.18,0-.4,0-.66,0-.26,0-.5.04-.73.1-.23.06-.43.16-.6.3-.16.14-.25.34-.25.6,0,.32.17.57.51.77.34.2.76.38,1.27.56.51.17,1.06.36,1.65.55.59.2,1.14.44,1.65.74.51.3.93.67,1.27,1.13h0ZM193,94.34h6.71v2.26h-9.88v-12.03h9.71v2.22h-6.54v2.51h5.97v2.23h-5.97v2.81h0ZM182.23,91.35c.34.45.51,1.03.51,1.71s-.14,1.23-.4,1.71c-.27.48-.64.87-1.13,1.18-.48.31-1.06.54-1.72.68-.66.15-1.39.22-2.17.22-.74,0-1.42-.04-2.03-.13-.62-.08-1.15-.18-1.6-.29-.45-.11-.8-.2-1.05-.29-.25-.09-.38-.13-.39-.13,0-.16,0-.31,0-.45,0-.14,0-.3,0-.47v-.55c0-.44,0-.93.02-1.48.22.1.5.24.85.4.35.17.73.33,1.16.49.43.16.88.3,1.35.42.47.12.94.19,1.39.2.17,0,.4-.01.69-.03.29-.02.57-.06.85-.14.28-.08.52-.2.72-.37.2-.17.3-.4.3-.69s-.17-.53-.5-.73c-.33-.19-.76-.37-1.26-.54s-1.05-.35-1.64-.56c-.59-.2-1.13-.46-1.64-.77-.51-.31-.93-.7-1.26-1.16-.34-.47-.5-1.05-.5-1.76,0-.64.16-1.18.49-1.63.32-.44.73-.81,1.23-1.09.49-.28,1.04-.49,1.63-.61.59-.13,1.15-.19,1.69-.19.93,0,1.78.06,2.54.19.76.13,1.37.25,1.83.38v.73c0,.21,0,.43-.01.67,0,.24-.01.46-.02.67,0,.2,0,.44,0,.71-.19-.13-.45-.27-.78-.4-.32-.13-.67-.24-1.04-.34-.37-.1-.75-.18-1.13-.24-.39-.06-.75-.09-1.08-.09-.18,0-.4,0-.66,0-.26,0-.5.04-.73.1-.23.06-.43.16-.6.3-.17.14-.25.34-.25.6,0,.32.17.57.51.77.34.2.77.38,1.27.56.51.17,1.05.36,1.65.55.59.2,1.14.44,1.65.74.51.3.93.67,1.27,1.13h0ZM141.77,84.57h3.23l4.56,12.03h-3.31l-.75-2.24h-4.25l-.77,2.24h-3.26l4.56-12.03h0ZM141.97,92.11h2.76l-1.35-4.21h-.03l-1.38,4.21h0ZM193.7,52.91v-9.42h20.4v23.77c-.94.42-2.1.89-3.47,1.42-1.37.53-2.94,1.02-4.72,1.46-1.78.44-3.73.81-5.87,1.11-2.14.3-4.44.45-6.91.45-3.77,0-7.18-.6-10.21-1.81-3.03-1.2-5.61-2.94-7.72-5.21-2.11-2.27-3.74-5.01-4.89-8.23-1.15-3.22-1.72-6.84-1.72-10.87s.57-7.34,1.72-10.49c1.15-3.15,2.77-5.85,4.89-8.09,2.11-2.25,4.69-3.98,7.72-5.21,3.03-1.23,6.44-1.84,10.21-1.84,2.47,0,4.61.13,6.41.38,1.79.25,3.39.55,4.79.9,1.39.35,2.62.72,3.67,1.11,1.04.39,2.03.74,2.96,1.06v10.56c-3.14-1.29-7.5-3.21-12.23-4.16-1.49-.3-2.94-.49-4.38-.49-2.25,0-4.2.49-5.86,1.46-1.66.97-3.07,2.23-4.21,3.78-1.14,1.55-3.12,5.78-3.12,12.06s1.98,9.17,3.12,10.7c1.15,1.53,2.55,2.74,4.21,3.65,1.66.9,3.62,1.35,5.86,1.35,1.44,0,2.81-.15,4.11-.45,1.31-.3,1.65-.38,3.09-.89v-8.08h-7.85ZM163.89,21.53v48.65h-12.55V21.53h12.55ZM139.32,44.34c2.07,1.23,3.81,2.78,5.21,4.66,1.4,1.88,2.1,4.23,2.1,7.06s-.55,5.09-1.64,7.06c-1.1,1.97-2.63,3.59-4.61,4.87-1.98,1.27-4.33,2.22-7.06,2.82-2.72.6-5.69.9-8.91.9-3.03,0-5.8-.17-8.32-.52-2.51-.35-4.69-.74-6.53-1.18-1.53-.37-2.77-.71-3.73-1.03v-11.94c.44.21.91.44,1.42.69,1.42.7,3,1.37,4.75,2.02,1.75.65,3.59,1.23,5.52,1.74,1.93.51,3.83.79,5.69.83.7,0,1.64-.03,2.83-.1,1.19-.07,2.35-.27,3.49-.59,1.14-.32,2.12-.84,2.93-1.53.81-.7,1.22-1.65,1.22-2.85s-.69-2.2-2.06-2.99c-1.37-.79-3.1-1.53-5.17-2.22-2.07-.7-4.31-1.46-6.7-2.3-2.4-.83-4.64-1.89-6.71-3.16-2.07-1.27-3.8-2.87-5.17-4.8-1.37-1.92-2.06-4.35-2.06-7.27,0-2.65.66-4.88,1.99-6.71,1.33-1.83,3-3.33,5.03-4.49,2.02-1.16,4.25-2,6.67-2.54,2.42-.53,4.73-.8,6.92-.8,3.82,0,7.29.27,10.41.8,2.87.49,6.24,1.11,8.21,1.6v11.5c-1.32-.49-2.73-1.16-4.05-1.69-1.33-.53-2.75-1.01-4.26-1.42-1.52-.42-3.06-.75-4.65-1.01-1.58-.26-3.05-.38-4.4-.38-.75,0-1.64.01-2.69.03-1.05.02-2.05.16-3,.42-.96.25-1.77.67-2.45,1.25-.68.58-1.01,1.4-1.01,2.47,0,1.3.7,2.35,2.1,3.16,1.4.81,3.13,1.58,5.21,2.3,2.07.72,4.32,1.49,6.74,2.3,2.42.81,4.67,1.83,6.74,3.06h0ZM258.04,21.52h20.4v48.65h-12.55v-36.93l-12.55,36.93h-7.85l-12.55-36.93v36.93h-12.55V21.52h20.4c.56,2.48,5.16,16.1,8.63,26.26,3.47-10.15,8.08-23.78,8.63-26.26h0ZM314.54,21.52l17.26,48.65h-12.56l-3.58-10.98h-16.37l-3.58,10.98h-12.55l17.26-48.65h14.12ZM301.85,51.34h11.26l-5.63-17.26-5.63,17.26h0Z"/>
    </g>
  </g>
</svg>